<svg width="60" height="60" viewBox="0 0 60 60" fill="none" xmlns="http://www.w3.org/2000/svg">
<rect width="60" height="60" fill="#F24E1E" fill-opacity="0.3"/>
<path d="M32.5 17.5H40C44.15 17.5 47.5 20.85 47.5 25V35C47.5 39.15 44.15 42.5 40 42.5H32.5V17.5ZM40 37.5C41.375 37.5 42.5 36.375 42.5 35V25C42.5 23.625 41.375 22.5 40 22.5H37.5V37.5H40ZM12.5 17.5H22.5C23.8261 17.5 25.0979 18.0268 26.0355 18.9645C26.9732 19.9021 27.5 21.1739 27.5 22.5V27.5C27.5 30.275 25.275 32.5 22.5 32.5H17.5V37.5H27.5V42.5H12.5V32.5C12.5 29.75 14.75 27.5 17.5 27.5H22.5V22.5H12.5V17.5Z" fill="#F24E1E"/>
</svg>
