<svg width="60" height="60" viewBox="0 0 60 60" fill="none" xmlns="http://www.w3.org/2000/svg">
<rect width="60" height="60" fill="#0FA958" fill-opacity="0.3"/>
<path d="M12.5 17.5H22.5C23.8261 17.5 25.0979 18.0268 26.0355 18.9645C26.9732 19.9021 27.5 21.1739 27.5 22.5V37.5C27.5 38.8261 26.9732 40.0979 26.0355 41.0355C25.0979 41.9732 23.8261 42.5 22.5 42.5H12.5V37.5H22.5V32.5H15V27.5H22.5V22.5H12.5V17.5ZM32.5 17.5H40C41.9891 17.5 43.8968 18.2902 45.3033 19.6967C46.7098 21.1032 47.5 23.0109 47.5 25V35C47.5 36.9891 46.7098 38.8968 45.3033 40.3033C43.8968 41.7098 41.9891 42.5 40 42.5H32.5V17.5ZM40 37.5C40.663 37.5 41.2989 37.2366 41.7678 36.7678C42.2366 36.2989 42.5 35.663 42.5 35V25C42.5 24.337 42.2366 23.7011 41.7678 23.2322C41.2989 22.7634 40.663 22.5 40 22.5H37.5V37.5H40Z" fill="#0FA958"/>
</svg>
