<svg width="25" height="25" viewBox="0 0 25 25" fill="none" xmlns="http://www.w3.org/2000/svg">
<g opacity="0.5">
<path d="M4.16667 11.4583C3.87153 11.4583 3.62396 11.3583 3.42396 11.1583C3.22396 10.9583 3.12431 10.7111 3.125 10.4167V4.16667C3.125 3.87153 3.225 3.62396 3.425 3.42396C3.625 3.22396 3.87223 3.12431 4.16667 3.125H10.4167C10.7118 3.125 10.9594 3.225 11.1594 3.425C11.3594 3.625 11.459 3.87223 11.4583 4.16667V10.4167C11.4583 10.7118 11.3583 10.9594 11.1583 11.1594C10.9583 11.3594 10.7111 11.459 10.4167 11.4583H4.16667ZM14.5833 11.4583C14.2882 11.4583 14.0406 11.3583 13.8406 11.1583C13.6406 10.9583 13.541 10.7111 13.5417 10.4167V4.16667C13.5417 3.87153 13.6417 3.62396 13.8417 3.42396C14.0417 3.22396 14.2889 3.12431 14.5833 3.125H20.8333C21.1285 3.125 21.376 3.225 21.576 3.425C21.776 3.625 21.8757 3.87223 21.875 4.16667V10.4167C21.875 10.7118 21.775 10.9594 21.575 11.1594C21.375 11.3594 21.1278 11.459 20.8333 11.4583H14.5833ZM4.16667 21.875C3.87153 21.875 3.62396 21.775 3.42396 21.575C3.22396 21.375 3.12431 21.1278 3.125 20.8333V14.5833C3.125 14.2882 3.225 14.0406 3.425 13.8406C3.625 13.6406 3.87223 13.541 4.16667 13.5417H10.4167C10.7118 13.5417 10.9594 13.6417 11.1594 13.8417C11.3594 14.0417 11.459 14.2889 11.4583 14.5833V20.8333C11.4583 21.1285 11.3583 21.376 11.1583 21.576C10.9583 21.776 10.7111 21.8757 10.4167 21.875H4.16667ZM17.7083 21.875C17.4132 21.875 17.1656 21.775 16.9656 21.575C16.7656 21.375 16.666 21.1278 16.6667 20.8333V18.75H14.5573C14.2622 18.75 14.0191 18.65 13.8281 18.45C13.6372 18.25 13.5417 18.0028 13.5417 17.7083C13.5417 17.4132 13.6417 17.1656 13.8417 16.9656C14.0417 16.7656 14.2889 16.666 14.5833 16.6667H16.6667V14.5573C16.6667 14.2622 16.7667 14.0191 16.9667 13.8281C17.1667 13.6372 17.4139 13.5417 17.7083 13.5417C18.0035 13.5417 18.251 13.6417 18.451 13.8417C18.651 14.0417 18.7507 14.2889 18.75 14.5833V16.6667H20.8594C21.1545 16.6667 21.3976 16.7667 21.5885 16.9667C21.7795 17.1667 21.875 17.4139 21.875 17.7083C21.875 18.0035 21.775 18.251 21.575 18.451C21.375 18.651 21.1278 18.7507 20.8333 18.75H18.75V20.8594C18.75 21.1545 18.65 21.3976 18.45 21.5885C18.25 21.7795 18.0028 21.875 17.7083 21.875ZM15.625 5.20834V9.375H19.7917V5.20834H15.625ZM5.20834 5.20834V9.375H9.375V5.20834H5.20834ZM5.20834 15.625V19.7917H9.375V15.625H5.20834Z" fill="white"/>
</g>
</svg>
