<svg width="60" height="60" viewBox="0 0 60 60" fill="none" xmlns="http://www.w3.org/2000/svg">
<rect width="60" height="60" fill="#FFC700" fill-opacity="0.3"/>
<path d="M27.5625 52.5V47.125C25.3542 46.625 23.4475 45.6667 21.8425 44.25C20.2375 42.8333 19.0608 40.8333 18.3125 38.25L22.9375 36.375C23.5625 38.375 24.49 39.8958 25.72 40.9375C26.95 41.9792 28.5642 42.5 30.5625 42.5C32.2708 42.5 33.7192 42.1142 34.9075 41.3425C36.0958 40.5708 36.6892 39.3733 36.6875 37.75C36.6875 36.2917 36.2292 35.1358 35.3125 34.2825C34.3958 33.4292 32.2708 32.46 28.9375 31.375C25.3542 30.25 22.8958 28.9058 21.5625 27.3425C20.2292 25.7792 19.5625 23.8733 19.5625 21.625C19.5625 18.9167 20.4375 16.8125 22.1875 15.3125C23.9375 13.8125 25.7292 12.9583 27.5625 12.75V7.5H32.5625V12.75C34.6458 13.0833 36.365 13.8442 37.72 15.0325C39.075 16.2208 40.0642 17.6683 40.6875 19.375L36.0625 21.375C35.5625 20.0417 34.8542 19.0417 33.9375 18.375C33.0208 17.7083 31.7708 17.375 30.1875 17.375C28.3542 17.375 26.9583 17.7817 26 18.595C25.0417 19.4083 24.5625 20.4183 24.5625 21.625C24.5625 23 25.1875 24.0833 26.4375 24.875C27.6875 25.6667 29.8542 26.5 32.9375 27.375C35.8125 28.2083 37.99 29.5317 39.47 31.345C40.95 33.1583 41.6892 35.2517 41.6875 37.625C41.6875 40.5833 40.8125 42.8333 39.0625 44.375C37.3125 45.9167 35.1458 46.875 32.5625 47.25V52.5H27.5625Z" fill="#FFC700"/>
</svg>
